<svg xmlns="http://www.w3.org/2000/svg" viewBox="0 0 1200 900" role="img" aria-labelledby="title desc">
  <title id="title">Crew portrait with tools and trees</title>
  <desc id="desc">Illustrated local service crew standing in front of a truck and evergreen trees.</desc>
  <rect width="1200" height="900" fill="#f4ecdd"/>
  <rect y="600" width="1200" height="300" fill="#7d9f67"/>
  <rect x="760" y="430" width="255" height="118" rx="22" fill="#315a3b"/>
  <rect x="820" y="384" width="145" height="88" rx="18" fill="#426f4f"/>
  <circle cx="824" cy="570" r="52" fill="#2d2d2d"/>
  <circle cx="963" cy="570" r="52" fill="#2d2d2d"/>
  <rect x="152" y="235" width="48" height="390" fill="#6d4a2d"/>
  <circle cx="176" cy="190" r="92" fill="#2e5a33"/>
  <circle cx="235" cy="250" r="72" fill="#3d7141"/>
  <circle cx="112" cy="265" r="74" fill="#447d49"/>
  <rect x="1030" y="180" width="40" height="430" fill="#6d4a2d"/>
  <circle cx="1049" cy="150" r="86" fill="#2f5b34"/>
  <circle cx="980" cy="225" r="70" fill="#3f7142"/>
  <circle cx="1100" cy="230" r="66" fill="#46794b"/>
  <g>
    <circle cx="390" cy="430" r="58" fill="#e3ad78"/>
    <rect x="345" y="490" width="92" height="145" rx="24" fill="#224a33"/>
    <rect x="330" y="510" width="30" height="150" rx="12" fill="#224a33"/>
    <rect x="420" y="510" width="30" height="150" rx="12" fill="#224a33"/>
  </g>
  <g>
    <circle cx="565" cy="445" r="54" fill="#d89f6d"/>
    <rect x="522" y="498" width="86" height="136" rx="24" fill="#354f7d"/>
    <rect x="506" y="520" width="28" height="148" rx="12" fill="#354f7d"/>
    <rect x="597" y="520" width="28" height="148" rx="12" fill="#354f7d"/>
  </g>
  <rect x="656" y="448" width="18" height="180" fill="#d7c8a3"/>
  <path d="M674 442 L760 368 L772 384 L686 456 Z" fill="#b5905f"/>
  <path d="M760 368 L812 392 L798 422 L748 396 Z" fill="#c2cac4"/>
  <rect x="168" y="662" width="375" height="108" rx="24" fill="#fff8ed"/>
  <text x="208" y="720" font-family="Arial, sans-serif" font-size="38" fill="#1d4029">Local crew. Clear process. Tidy result.</text>
</svg>
