<svg xmlns="http://www.w3.org/2000/svg" viewBox="0 0 1200 900">
  <rect width="1200" height="900" fill="#dce9eb"/>
  <rect y="650" width="1200" height="250" fill="#7ea06e"/>
  <rect x="170" y="220" width="54" height="460" fill="#6b472d"/>
  <circle cx="196" cy="170" r="120" fill="#2f5e34"/>
  <circle cx="112" cy="252" r="92" fill="#427743"/>
  <circle cx="286" cy="265" r="94" fill="#356538"/>
  <rect x="726" y="330" width="320" height="228" rx="10" fill="#efe1c8"/>
  <polygon points="700,358 885,225 1074,358" fill="#7c5940"/>
  <rect x="860" y="410" width="76" height="148" fill="#8a674c"/>
  <rect x="430" y="330" width="14" height="310" fill="#c0a783"/>
  <rect x="487" y="330" width="14" height="310" fill="#c0a783"/>
  <g stroke="#c0a783" stroke-width="10">
    <line x1="437" y1="370" x2="495" y2="370"/>
    <line x1="437" y1="428" x2="495" y2="428"/>
    <line x1="437" y1="486" x2="495" y2="486"/>
    <line x1="437" y1="544" x2="495" y2="544"/>
  </g>
  <circle cx="386" cy="522" r="54" fill="#dda56e"/>
  <rect x="360" y="570" width="48" height="104" rx="14" fill="#214b32"/>
</svg>
