<svg xmlns="http://www.w3.org/2000/svg" viewBox="0 0 1200 900">
  <rect width="1200" height="900" fill="#eef0e8"/>
  <rect y="620" width="1200" height="280" fill="#86a46f"/>
  <path d="M0 640 C260 590 360 590 610 640 S970 700 1200 628 L1200 900 L0 900 Z" fill="#71915d"/>
  <rect x="214" y="246" width="40" height="398" fill="#755134"/>
  <circle cx="232" cy="210" r="96" fill="#356b39"/>
  <circle cx="302" cy="270" r="68" fill="#447747"/>
  <circle cx="162" cy="284" r="68" fill="#3c7040"/>
  <rect x="780" y="282" width="232" height="306" rx="16" fill="#f4ead8"/>
  <rect x="814" y="318" width="78" height="72" fill="#a6d0db"/>
  <rect x="910" y="318" width="78" height="72" fill="#a6d0db"/>
  <rect x="862" y="430" width="76" height="158" fill="#8a6549"/>
  <path d="M520 648 C580 590 648 548 730 516" stroke="#587147" stroke-width="20" fill="none"/>
  <path d="M520 648 C460 594 378 552 274 516" stroke="#587147" stroke-width="20" fill="none"/>
  <circle cx="520" cy="648" r="34" fill="#64452c"/>
</svg>
